<svg width="32" height="30" viewBox="0 0 32 30" fill="none" xmlns="http://www.w3.org/2000/svg">
<g filter="url(#filter0_d_8_563)">
<path d="M26.772 9.27412L21.154 7.08212L18.994 0.582115C18.892 0.275115 18.604 0.0681152 18.282 0.0681152C17.96 0.0681152 17.672 0.275116 17.57 0.581116L15.41 7.08112L9.78999 9.27312C9.50299 9.38512 9.313 9.66312 9.313 9.97312C9.313 10.2831 9.503 10.5581 9.791 10.6711L15.411 12.8631L17.571 19.3631C17.673 19.6691 17.961 19.8761 18.283 19.8761C18.605 19.8761 18.893 19.6691 18.995 19.3631L21.155 12.8631L26.775 10.6711C27.062 10.5591 27.252 10.2811 27.252 9.97112C27.252 9.66111 27.062 9.38612 26.774 9.27412H26.772ZM20.282 11.5941C20.074 11.6741 19.912 11.8441 19.842 12.0541L18.282 16.7491L16.722 12.0561C16.652 11.8461 16.492 11.6761 16.284 11.5941L12.129 9.97412L16.283 8.35212C16.491 8.27212 16.653 8.10212 16.723 7.89012L18.283 3.19712L19.843 7.89112C19.913 8.10312 20.073 8.27311 20.281 8.35411L24.436 9.97412L20.281 11.5961L20.282 11.5941ZM10.663 2.58012H8.783V0.818115C8.783 0.404115 8.446 0.0681152 8.033 0.0681152C7.62 0.0681152 7.283 0.404115 7.283 0.818115V2.58012H5.5C5.086 2.58012 4.75 2.91612 4.75 3.33012C4.75 3.74412 5.086 4.08012 5.5 4.08012H7.282V5.84212C7.282 6.25612 7.618 6.59212 8.032 6.59212C8.446 6.59212 8.782 6.25612 8.782 5.84212V4.08012H10.662C11.077 4.08012 11.412 3.74412 11.412 3.33012C11.412 2.91612 11.077 2.58012 10.662 2.58012H10.663ZM13.198 18.2021H12.098V17.1861C12.098 16.7721 11.763 16.4361 11.348 16.4361C10.933 16.4361 10.598 16.7721 10.598 17.1861V18.2021H9.57001C9.15601 18.2021 8.82001 18.5381 8.82001 18.9521C8.82001 19.3661 9.15601 19.7021 9.57001 19.7021H10.6V20.7181C10.6 21.1321 10.935 21.4681 11.35 21.4681C11.765 21.4681 12.1 21.1321 12.1 20.7181V19.7021H13.198C13.612 19.7021 13.948 19.3661 13.948 18.9521C13.948 18.5381 13.612 18.2021 13.198 18.2021Z" fill="black"/>
</g>
<defs>
<filter id="filter0_d_8_563" x="0.75" y="0.0681152" width="30.502" height="29.4" filterUnits="userSpaceOnUse" color-interpolation-filters="sRGB">
<feFlood flood-opacity="0" result="BackgroundImageFix"/>
<feColorMatrix in="SourceAlpha" type="matrix" values="0 0 0 0 0 0 0 0 0 0 0 0 0 0 0 0 0 0 127 0" result="hardAlpha"/>
<feOffset dy="4"/>
<feGaussianBlur stdDeviation="2"/>
<feComposite in2="hardAlpha" operator="out"/>
<feColorMatrix type="matrix" values="0 0 0 0 0 0 0 0 0 0 0 0 0 0 0 0 0 0 0.25 0"/>
<feBlend mode="normal" in2="BackgroundImageFix" result="effect1_dropShadow_8_563"/>
<feBlend mode="normal" in="SourceGraphic" in2="effect1_dropShadow_8_563" result="shape"/>
</filter>
</defs>
</svg>
